<?xml version="1.0" encoding="utf-8" standalone="no"?>
<!DOCTYPE svg PUBLIC "-//W3C//DTD SVG 1.1//EN"
  "http://www.w3.org/Graphics/SVG/1.1/DTD/svg11.dtd">
<!-- Created with matplotlib (https://matplotlib.org/) -->
<svg height="609.84pt" version="1.1" viewBox="0 0 740.16 609.84" width="740.16pt" xmlns="http://www.w3.org/2000/svg" xmlns:xlink="http://www.w3.org/1999/xlink">
 <defs>
  <style type="text/css">
*{stroke-linecap:butt;stroke-linejoin:round;}
  </style>
 </defs>
 <g id="figure_1">
  <g id="patch_1">
   <path d="M 0 609.84 
L 740.16 609.84 
L 740.16 0 
L 0 0 
z
" style="fill:#ffffff;"/>
  </g>
  <g id="axes_1">
   <g id="patch_2">
    <path d="M 36.403365 527.948723 
L 733.65976 527.948723 
L 733.65976 6.50024 
L 36.403365 6.50024 
z
" style="fill:#ffffff;"/>
   </g>
   <g id="patch_3">
    <path clip-path="url(#peceeec5da8)" d="M 68.096837 527.948723 
L 117.987598 527.948723 
L 117.987598 524.880842 
L 68.096837 524.880842 
z
" style="fill:#1f77b4;opacity:0.5;"/>
   </g>
   <g id="patch_4">
    <path clip-path="url(#peceeec5da8)" d="M 117.987598 527.948723 
L 167.878359 527.948723 
L 167.878359 472.726856 
L 117.987598 472.726856 
z
" style="fill:#1f77b4;opacity:0.5;"/>
   </g>
   <g id="patch_5">
    <path clip-path="url(#peceeec5da8)" d="M 167.878359 527.948723 
L 217.76912 527.948723 
L 217.76912 300.92549 
L 167.878359 300.92549 
z
" style="fill:#1f77b4;opacity:0.5;"/>
   </g>
   <g id="patch_6">
    <path clip-path="url(#peceeec5da8)" d="M 217.76912 527.948723 
L 267.65988 527.948723 
L 267.65988 64.698611 
L 217.76912 64.698611 
z
" style="fill:#1f77b4;opacity:0.5;"/>
   </g>
   <g id="patch_7">
    <path clip-path="url(#peceeec5da8)" d="M 267.65988 527.948723 
L 317.550641 527.948723 
L 317.550641 135.259886 
L 267.65988 135.259886 
z
" style="fill:#1f77b4;opacity:0.5;"/>
   </g>
   <g id="patch_8">
    <path clip-path="url(#peceeec5da8)" d="M 317.550641 527.948723 
L 367.441402 527.948723 
L 367.441402 291.721845 
L 317.550641 291.721845 
z
" style="fill:#1f77b4;opacity:0.5;"/>
   </g>
   <g id="patch_9">
    <path clip-path="url(#peceeec5da8)" d="M 367.441402 527.948723 
L 417.332163 527.948723 
L 417.332163 426.708633 
L 367.441402 426.708633 
z
" style="fill:#1f77b4;opacity:0.5;"/>
   </g>
   <g id="patch_10">
    <path clip-path="url(#peceeec5da8)" d="M 417.332163 527.948723 
L 467.222923 527.948723 
L 467.222923 484.998382 
L 417.332163 484.998382 
z
" style="fill:#1f77b4;opacity:0.5;"/>
   </g>
   <g id="patch_11">
    <path clip-path="url(#peceeec5da8)" d="M 467.222923 527.948723 
L 517.113684 527.948723 
L 517.113684 518.745079 
L 467.222923 518.745079 
z
" style="fill:#1f77b4;opacity:0.5;"/>
   </g>
   <g id="patch_12">
    <path clip-path="url(#peceeec5da8)" d="M 517.113684 527.948723 
L 567.004445 527.948723 
L 567.004445 524.880842 
L 517.113684 524.880842 
z
" style="fill:#1f77b4;opacity:0.5;"/>
   </g>
   <g id="patch_13">
    <path clip-path="url(#peceeec5da8)" d="M 302.67965 527.948723 
L 341.821408 527.948723 
L 341.821408 512.307224 
L 302.67965 512.307224 
z
" style="fill:#ff7f0e;opacity:0.5;"/>
   </g>
   <g id="patch_14">
    <path clip-path="url(#peceeec5da8)" d="M 341.821408 527.948723 
L 380.963165 527.948723 
L 380.963165 398.906354 
L 341.821408 398.906354 
z
" style="fill:#ff7f0e;opacity:0.5;"/>
   </g>
   <g id="patch_15">
    <path clip-path="url(#peceeec5da8)" d="M 380.963165 527.948723 
L 420.104923 527.948723 
L 420.104923 281.595109 
L 380.963165 281.595109 
z
" style="fill:#ff7f0e;opacity:0.5;"/>
   </g>
   <g id="patch_16">
    <path clip-path="url(#peceeec5da8)" d="M 420.104923 527.948723 
L 459.246681 527.948723 
L 459.246681 31.33112 
L 420.104923 31.33112 
z
" style="fill:#ff7f0e;opacity:0.5;"/>
   </g>
   <g id="patch_17">
    <path clip-path="url(#peceeec5da8)" d="M 459.246681 527.948723 
L 498.388438 527.948723 
L 498.388438 62.614119 
L 459.246681 62.614119 
z
" style="fill:#ff7f0e;opacity:0.5;"/>
   </g>
   <g id="patch_18">
    <path clip-path="url(#peceeec5da8)" d="M 498.388438 527.948723 
L 537.530196 527.948723 
L 537.530196 207.297987 
L 498.388438 207.297987 
z
" style="fill:#ff7f0e;opacity:0.5;"/>
   </g>
   <g id="patch_19">
    <path clip-path="url(#peceeec5da8)" d="M 537.530196 527.948723 
L 576.671954 527.948723 
L 576.671954 351.981856 
L 537.530196 351.981856 
z
" style="fill:#ff7f0e;opacity:0.5;"/>
   </g>
   <g id="patch_20">
    <path clip-path="url(#peceeec5da8)" d="M 576.671954 527.948723 
L 615.813711 527.948723 
L 615.813711 473.203476 
L 576.671954 473.203476 
z
" style="fill:#ff7f0e;opacity:0.5;"/>
   </g>
   <g id="patch_21">
    <path clip-path="url(#peceeec5da8)" d="M 615.813711 527.948723 
L 654.955469 527.948723 
L 654.955469 488.844975 
L 615.813711 488.844975 
z
" style="fill:#ff7f0e;opacity:0.5;"/>
   </g>
   <g id="patch_22">
    <path clip-path="url(#peceeec5da8)" d="M 654.955469 527.948723 
L 694.097227 527.948723 
L 694.097227 516.217599 
L 654.955469 516.217599 
z
" style="fill:#ff7f0e;opacity:0.5;"/>
   </g>
   <g id="patch_23">
    <path clip-path="url(#peceeec5da8)" d="M 338.221341 527.948723 
L 374.595836 527.948723 
L 374.595836 477.45435 
L 338.221341 477.45435 
z
" style="fill:#2ca02c;opacity:0.5;"/>
   </g>
   <g id="patch_24">
    <path clip-path="url(#peceeec5da8)" d="M 374.595836 527.948723 
L 410.970331 527.948723 
L 410.970331 355.42628 
L 374.595836 355.42628 
z
" style="fill:#2ca02c;opacity:0.5;"/>
   </g>
   <g id="patch_25">
    <path clip-path="url(#peceeec5da8)" d="M 410.970331 527.948723 
L 447.344825 527.948723 
L 447.344825 208.151023 
L 410.970331 208.151023 
z
" style="fill:#2ca02c;opacity:0.5;"/>
   </g>
   <g id="patch_26">
    <path clip-path="url(#peceeec5da8)" d="M 447.344825 527.948723 
L 483.71932 527.948723 
L 483.71932 77.707224 
L 447.344825 77.707224 
z
" style="fill:#2ca02c;opacity:0.5;"/>
   </g>
   <g id="patch_27">
    <path clip-path="url(#peceeec5da8)" d="M 483.71932 527.948723 
L 520.093814 527.948723 
L 520.093814 86.122953 
L 483.71932 86.122953 
z
" style="fill:#2ca02c;opacity:0.5;"/>
   </g>
   <g id="patch_28">
    <path clip-path="url(#peceeec5da8)" d="M 520.093814 527.948723 
L 556.468309 527.948723 
L 556.468309 182.903836 
L 520.093814 182.903836 
z
" style="fill:#2ca02c;opacity:0.5;"/>
   </g>
   <g id="patch_29">
    <path clip-path="url(#peceeec5da8)" d="M 556.468309 527.948723 
L 592.842804 527.948723 
L 592.842804 368.049873 
L 556.468309 368.049873 
z
" style="fill:#2ca02c;opacity:0.5;"/>
   </g>
   <g id="patch_30">
    <path clip-path="url(#peceeec5da8)" d="M 592.842804 527.948723 
L 629.217298 527.948723 
L 629.217298 431.16784 
L 592.842804 431.16784 
z
" style="fill:#2ca02c;opacity:0.5;"/>
   </g>
   <g id="patch_31">
    <path clip-path="url(#peceeec5da8)" d="M 629.217298 527.948723 
L 665.591793 527.948723 
L 665.591793 481.662214 
L 629.217298 481.662214 
z
" style="fill:#2ca02c;opacity:0.5;"/>
   </g>
   <g id="patch_32">
    <path clip-path="url(#peceeec5da8)" d="M 665.591793 527.948723 
L 701.966288 527.948723 
L 701.966288 506.909401 
L 665.591793 506.909401 
z
" style="fill:#2ca02c;opacity:0.5;"/>
   </g>
   <g id="matplotlib.axis_1">
    <g id="xtick_1">
     <g id="line2d_1">
      <path clip-path="url(#peceeec5da8)" d="M 127.089281 527.948723 
L 127.089281 6.50024 
" style="fill:none;stroke:#b0b0b0;stroke-linecap:square;stroke-width:0.8;"/>
     </g>
     <g id="line2d_2">
      <defs>
       <path d="M 0 0 
L 0 3.5 
" id="m341ab6551e" style="stroke:#000000;stroke-width:0.8;"/>
      </defs>
      <g>
       <use style="stroke:#000000;stroke-width:0.8;" x="127.089281" xlink:href="#m341ab6551e" y="527.948723"/>
      </g>
     </g>
     <g id="text_1">
      <!-- 0.20 -->
      <defs>
       <path d="M 31.78125 66.40625 
Q 24.171875 66.40625 20.328125 58.90625 
Q 16.5 51.421875 16.5 36.375 
Q 16.5 21.390625 20.328125 13.890625 
Q 24.171875 6.390625 31.78125 6.390625 
Q 39.453125 6.390625 43.28125 13.890625 
Q 47.125 21.390625 47.125 36.375 
Q 47.125 51.421875 43.28125 58.90625 
Q 39.453125 66.40625 31.78125 66.40625 
z
M 31.78125 74.21875 
Q 44.046875 74.21875 50.515625 64.515625 
Q 56.984375 54.828125 56.984375 36.375 
Q 56.984375 17.96875 50.515625 8.265625 
Q 44.046875 -1.421875 31.78125 -1.421875 
Q 19.53125 -1.421875 13.0625 8.265625 
Q 6.59375 17.96875 6.59375 36.375 
Q 6.59375 54.828125 13.0625 64.515625 
Q 19.53125 74.21875 31.78125 74.21875 
z
" id="DejaVuSans-48"/>
       <path d="M 10.6875 12.40625 
L 21 12.40625 
L 21 0 
L 10.6875 0 
z
" id="DejaVuSans-46"/>
       <path d="M 19.1875 8.296875 
L 53.609375 8.296875 
L 53.609375 0 
L 7.328125 0 
L 7.328125 8.296875 
Q 12.9375 14.109375 22.625 23.890625 
Q 32.328125 33.6875 34.8125 36.53125 
Q 39.546875 41.84375 41.421875 45.53125 
Q 43.3125 49.21875 43.3125 52.78125 
Q 43.3125 58.59375 39.234375 62.25 
Q 35.15625 65.921875 28.609375 65.921875 
Q 23.96875 65.921875 18.8125 64.3125 
Q 13.671875 62.703125 7.8125 59.421875 
L 7.8125 69.390625 
Q 13.765625 71.78125 18.9375 73 
Q 24.125 74.21875 28.421875 74.21875 
Q 39.75 74.21875 46.484375 68.546875 
Q 53.21875 62.890625 53.21875 53.421875 
Q 53.21875 48.921875 51.53125 44.890625 
Q 49.859375 40.875 45.40625 35.40625 
Q 44.1875 33.984375 37.640625 27.21875 
Q 31.109375 20.453125 19.1875 8.296875 
z
" id="DejaVuSans-50"/>
      </defs>
      <g transform="translate(115.956469 542.547161)scale(0.1 -0.1)">
       <use xlink:href="#DejaVuSans-48"/>
       <use x="63.623047" xlink:href="#DejaVuSans-46"/>
       <use x="95.410156" xlink:href="#DejaVuSans-50"/>
       <use x="159.033203" xlink:href="#DejaVuSans-48"/>
      </g>
     </g>
    </g>
    <g id="xtick_2">
     <g id="line2d_3">
      <path clip-path="url(#peceeec5da8)" d="M 241.98762 527.948723 
L 241.98762 6.50024 
" style="fill:none;stroke:#b0b0b0;stroke-linecap:square;stroke-width:0.8;"/>
     </g>
     <g id="line2d_4">
      <g>
       <use style="stroke:#000000;stroke-width:0.8;" x="241.98762" xlink:href="#m341ab6551e" y="527.948723"/>
      </g>
     </g>
     <g id="text_2">
      <!-- 0.25 -->
      <defs>
       <path d="M 10.796875 72.90625 
L 49.515625 72.90625 
L 49.515625 64.59375 
L 19.828125 64.59375 
L 19.828125 46.734375 
Q 21.96875 47.46875 24.109375 47.828125 
Q 26.265625 48.1875 28.421875 48.1875 
Q 40.625 48.1875 47.75 41.5 
Q 54.890625 34.8125 54.890625 23.390625 
Q 54.890625 11.625 47.5625 5.09375 
Q 40.234375 -1.421875 26.90625 -1.421875 
Q 22.3125 -1.421875 17.546875 -0.640625 
Q 12.796875 0.140625 7.71875 1.703125 
L 7.71875 11.625 
Q 12.109375 9.234375 16.796875 8.0625 
Q 21.484375 6.890625 26.703125 6.890625 
Q 35.15625 6.890625 40.078125 11.328125 
Q 45.015625 15.765625 45.015625 23.390625 
Q 45.015625 31 40.078125 35.4375 
Q 35.15625 39.890625 26.703125 39.890625 
Q 22.75 39.890625 18.8125 39.015625 
Q 14.890625 38.140625 10.796875 36.28125 
z
" id="DejaVuSans-53"/>
      </defs>
      <g transform="translate(230.854808 542.547161)scale(0.1 -0.1)">
       <use xlink:href="#DejaVuSans-48"/>
       <use x="63.623047" xlink:href="#DejaVuSans-46"/>
       <use x="95.410156" xlink:href="#DejaVuSans-50"/>
       <use x="159.033203" xlink:href="#DejaVuSans-53"/>
      </g>
     </g>
    </g>
    <g id="xtick_3">
     <g id="line2d_5">
      <path clip-path="url(#peceeec5da8)" d="M 356.885959 527.948723 
L 356.885959 6.50024 
" style="fill:none;stroke:#b0b0b0;stroke-linecap:square;stroke-width:0.8;"/>
     </g>
     <g id="line2d_6">
      <g>
       <use style="stroke:#000000;stroke-width:0.8;" x="356.885959" xlink:href="#m341ab6551e" y="527.948723"/>
      </g>
     </g>
     <g id="text_3">
      <!-- 0.30 -->
      <defs>
       <path d="M 40.578125 39.3125 
Q 47.65625 37.796875 51.625 33 
Q 55.609375 28.21875 55.609375 21.1875 
Q 55.609375 10.40625 48.1875 4.484375 
Q 40.765625 -1.421875 27.09375 -1.421875 
Q 22.515625 -1.421875 17.65625 -0.515625 
Q 12.796875 0.390625 7.625 2.203125 
L 7.625 11.71875 
Q 11.71875 9.328125 16.59375 8.109375 
Q 21.484375 6.890625 26.8125 6.890625 
Q 36.078125 6.890625 40.9375 10.546875 
Q 45.796875 14.203125 45.796875 21.1875 
Q 45.796875 27.640625 41.28125 31.265625 
Q 36.765625 34.90625 28.71875 34.90625 
L 20.21875 34.90625 
L 20.21875 43.015625 
L 29.109375 43.015625 
Q 36.375 43.015625 40.234375 45.921875 
Q 44.09375 48.828125 44.09375 54.296875 
Q 44.09375 59.90625 40.109375 62.90625 
Q 36.140625 65.921875 28.71875 65.921875 
Q 24.65625 65.921875 20.015625 65.03125 
Q 15.375 64.15625 9.8125 62.3125 
L 9.8125 71.09375 
Q 15.4375 72.65625 20.34375 73.4375 
Q 25.25 74.21875 29.59375 74.21875 
Q 40.828125 74.21875 47.359375 69.109375 
Q 53.90625 64.015625 53.90625 55.328125 
Q 53.90625 49.265625 50.4375 45.09375 
Q 46.96875 40.921875 40.578125 39.3125 
z
" id="DejaVuSans-51"/>
      </defs>
      <g transform="translate(345.753147 542.547161)scale(0.1 -0.1)">
       <use xlink:href="#DejaVuSans-48"/>
       <use x="63.623047" xlink:href="#DejaVuSans-46"/>
       <use x="95.410156" xlink:href="#DejaVuSans-51"/>
       <use x="159.033203" xlink:href="#DejaVuSans-48"/>
      </g>
     </g>
    </g>
    <g id="xtick_4">
     <g id="line2d_7">
      <path clip-path="url(#peceeec5da8)" d="M 471.784298 527.948723 
L 471.784298 6.50024 
" style="fill:none;stroke:#b0b0b0;stroke-linecap:square;stroke-width:0.8;"/>
     </g>
     <g id="line2d_8">
      <g>
       <use style="stroke:#000000;stroke-width:0.8;" x="471.784298" xlink:href="#m341ab6551e" y="527.948723"/>
      </g>
     </g>
     <g id="text_4">
      <!-- 0.35 -->
      <g transform="translate(460.651486 542.547161)scale(0.1 -0.1)">
       <use xlink:href="#DejaVuSans-48"/>
       <use x="63.623047" xlink:href="#DejaVuSans-46"/>
       <use x="95.410156" xlink:href="#DejaVuSans-51"/>
       <use x="159.033203" xlink:href="#DejaVuSans-53"/>
      </g>
     </g>
    </g>
    <g id="xtick_5">
     <g id="line2d_9">
      <path clip-path="url(#peceeec5da8)" d="M 586.682637 527.948723 
L 586.682637 6.50024 
" style="fill:none;stroke:#b0b0b0;stroke-linecap:square;stroke-width:0.8;"/>
     </g>
     <g id="line2d_10">
      <g>
       <use style="stroke:#000000;stroke-width:0.8;" x="586.682637" xlink:href="#m341ab6551e" y="527.948723"/>
      </g>
     </g>
     <g id="text_5">
      <!-- 0.40 -->
      <defs>
       <path d="M 37.796875 64.3125 
L 12.890625 25.390625 
L 37.796875 25.390625 
z
M 35.203125 72.90625 
L 47.609375 72.90625 
L 47.609375 25.390625 
L 58.015625 25.390625 
L 58.015625 17.1875 
L 47.609375 17.1875 
L 47.609375 0 
L 37.796875 0 
L 37.796875 17.1875 
L 4.890625 17.1875 
L 4.890625 26.703125 
z
" id="DejaVuSans-52"/>
      </defs>
      <g transform="translate(575.549825 542.547161)scale(0.1 -0.1)">
       <use xlink:href="#DejaVuSans-48"/>
       <use x="63.623047" xlink:href="#DejaVuSans-46"/>
       <use x="95.410156" xlink:href="#DejaVuSans-52"/>
       <use x="159.033203" xlink:href="#DejaVuSans-48"/>
      </g>
     </g>
    </g>
    <g id="xtick_6">
     <g id="line2d_11">
      <path clip-path="url(#peceeec5da8)" d="M 701.580976 527.948723 
L 701.580976 6.50024 
" style="fill:none;stroke:#b0b0b0;stroke-linecap:square;stroke-width:0.8;"/>
     </g>
     <g id="line2d_12">
      <g>
       <use style="stroke:#000000;stroke-width:0.8;" x="701.580976" xlink:href="#m341ab6551e" y="527.948723"/>
      </g>
     </g>
     <g id="text_6">
      <!-- 0.45 -->
      <g transform="translate(690.448164 542.547161)scale(0.1 -0.1)">
       <use xlink:href="#DejaVuSans-48"/>
       <use x="63.623047" xlink:href="#DejaVuSans-46"/>
       <use x="95.410156" xlink:href="#DejaVuSans-52"/>
       <use x="159.033203" xlink:href="#DejaVuSans-53"/>
      </g>
     </g>
    </g>
    <g id="text_7">
     <!-- kg CO2-Eq -->
     <defs>
      <path d="M 9.078125 75.984375 
L 18.109375 75.984375 
L 18.109375 31.109375 
L 44.921875 54.6875 
L 56.390625 54.6875 
L 27.390625 29.109375 
L 57.625 0 
L 45.90625 0 
L 18.109375 26.703125 
L 18.109375 0 
L 9.078125 0 
z
" id="DejaVuSans-107"/>
      <path d="M 45.40625 27.984375 
Q 45.40625 37.75 41.375 43.109375 
Q 37.359375 48.484375 30.078125 48.484375 
Q 22.859375 48.484375 18.828125 43.109375 
Q 14.796875 37.75 14.796875 27.984375 
Q 14.796875 18.265625 18.828125 12.890625 
Q 22.859375 7.515625 30.078125 7.515625 
Q 37.359375 7.515625 41.375 12.890625 
Q 45.40625 18.265625 45.40625 27.984375 
z
M 54.390625 6.78125 
Q 54.390625 -7.171875 48.1875 -13.984375 
Q 42 -20.796875 29.203125 -20.796875 
Q 24.46875 -20.796875 20.265625 -20.09375 
Q 16.0625 -19.390625 12.109375 -17.921875 
L 12.109375 -9.1875 
Q 16.0625 -11.328125 19.921875 -12.34375 
Q 23.78125 -13.375 27.78125 -13.375 
Q 36.625 -13.375 41.015625 -8.765625 
Q 45.40625 -4.15625 45.40625 5.171875 
L 45.40625 9.625 
Q 42.625 4.78125 38.28125 2.390625 
Q 33.9375 0 27.875 0 
Q 17.828125 0 11.671875 7.65625 
Q 5.515625 15.328125 5.515625 27.984375 
Q 5.515625 40.671875 11.671875 48.328125 
Q 17.828125 56 27.875 56 
Q 33.9375 56 38.28125 53.609375 
Q 42.625 51.21875 45.40625 46.390625 
L 45.40625 54.6875 
L 54.390625 54.6875 
z
" id="DejaVuSans-103"/>
      <path id="DejaVuSans-32"/>
      <path d="M 64.40625 67.28125 
L 64.40625 56.890625 
Q 59.421875 61.53125 53.78125 63.8125 
Q 48.140625 66.109375 41.796875 66.109375 
Q 29.296875 66.109375 22.65625 58.46875 
Q 16.015625 50.828125 16.015625 36.375 
Q 16.015625 21.96875 22.65625 14.328125 
Q 29.296875 6.6875 41.796875 6.6875 
Q 48.140625 6.6875 53.78125 8.984375 
Q 59.421875 11.28125 64.40625 15.921875 
L 64.40625 5.609375 
Q 59.234375 2.09375 53.4375 0.328125 
Q 47.65625 -1.421875 41.21875 -1.421875 
Q 24.65625 -1.421875 15.125 8.703125 
Q 5.609375 18.84375 5.609375 36.375 
Q 5.609375 53.953125 15.125 64.078125 
Q 24.65625 74.21875 41.21875 74.21875 
Q 47.75 74.21875 53.53125 72.484375 
Q 59.328125 70.75 64.40625 67.28125 
z
" id="DejaVuSans-67"/>
      <path d="M 39.40625 66.21875 
Q 28.65625 66.21875 22.328125 58.203125 
Q 16.015625 50.203125 16.015625 36.375 
Q 16.015625 22.609375 22.328125 14.59375 
Q 28.65625 6.59375 39.40625 6.59375 
Q 50.140625 6.59375 56.421875 14.59375 
Q 62.703125 22.609375 62.703125 36.375 
Q 62.703125 50.203125 56.421875 58.203125 
Q 50.140625 66.21875 39.40625 66.21875 
z
M 39.40625 74.21875 
Q 54.734375 74.21875 63.90625 63.9375 
Q 73.09375 53.65625 73.09375 36.375 
Q 73.09375 19.140625 63.90625 8.859375 
Q 54.734375 -1.421875 39.40625 -1.421875 
Q 24.03125 -1.421875 14.8125 8.828125 
Q 5.609375 19.09375 5.609375 36.375 
Q 5.609375 53.65625 14.8125 63.9375 
Q 24.03125 74.21875 39.40625 74.21875 
z
" id="DejaVuSans-79"/>
      <path d="M 4.890625 31.390625 
L 31.203125 31.390625 
L 31.203125 23.390625 
L 4.890625 23.390625 
z
" id="DejaVuSans-45"/>
      <path d="M 9.8125 72.90625 
L 55.90625 72.90625 
L 55.90625 64.59375 
L 19.671875 64.59375 
L 19.671875 43.015625 
L 54.390625 43.015625 
L 54.390625 34.71875 
L 19.671875 34.71875 
L 19.671875 8.296875 
L 56.78125 8.296875 
L 56.78125 0 
L 9.8125 0 
z
" id="DejaVuSans-69"/>
      <path d="M 14.796875 27.296875 
Q 14.796875 17.390625 18.875 11.75 
Q 22.953125 6.109375 30.078125 6.109375 
Q 37.203125 6.109375 41.296875 11.75 
Q 45.40625 17.390625 45.40625 27.296875 
Q 45.40625 37.203125 41.296875 42.84375 
Q 37.203125 48.484375 30.078125 48.484375 
Q 22.953125 48.484375 18.875 42.84375 
Q 14.796875 37.203125 14.796875 27.296875 
z
M 45.40625 8.203125 
Q 42.578125 3.328125 38.25 0.953125 
Q 33.9375 -1.421875 27.875 -1.421875 
Q 17.96875 -1.421875 11.734375 6.484375 
Q 5.515625 14.40625 5.515625 27.296875 
Q 5.515625 40.1875 11.734375 48.09375 
Q 17.96875 56 27.875 56 
Q 33.9375 56 38.25 53.625 
Q 42.578125 51.265625 45.40625 46.390625 
L 45.40625 54.6875 
L 54.390625 54.6875 
L 54.390625 -20.796875 
L 45.40625 -20.796875 
z
" id="DejaVuSans-113"/>
     </defs>
     <g transform="translate(358.626875 556.225286)scale(0.1 -0.1)">
      <use xlink:href="#DejaVuSans-107"/>
      <use x="57.910156" xlink:href="#DejaVuSans-103"/>
      <use x="121.386719" xlink:href="#DejaVuSans-32"/>
      <use x="153.173828" xlink:href="#DejaVuSans-67"/>
      <use x="222.998047" xlink:href="#DejaVuSans-79"/>
      <use x="301.708984" xlink:href="#DejaVuSans-50"/>
      <use x="365.332031" xlink:href="#DejaVuSans-45"/>
      <use x="401.416016" xlink:href="#DejaVuSans-69"/>
      <use x="464.599609" xlink:href="#DejaVuSans-113"/>
     </g>
    </g>
   </g>
   <g id="matplotlib.axis_2">
    <g id="ytick_1">
     <g id="line2d_13">
      <path clip-path="url(#peceeec5da8)" d="M 36.403365 527.948723 
L 733.65976 527.948723 
" style="fill:none;stroke:#b0b0b0;stroke-linecap:square;stroke-width:0.8;"/>
     </g>
     <g id="line2d_14">
      <defs>
       <path d="M 0 0 
L -3.5 0 
" id="m8f73a8b5ea" style="stroke:#000000;stroke-width:0.8;"/>
      </defs>
      <g>
       <use style="stroke:#000000;stroke-width:0.8;" x="36.403365" xlink:href="#m8f73a8b5ea" y="527.948723"/>
      </g>
     </g>
     <g id="text_8">
      <!-- 0 -->
      <g transform="translate(23.040865 531.747942)scale(0.1 -0.1)">
       <use xlink:href="#DejaVuSans-48"/>
      </g>
     </g>
    </g>
    <g id="ytick_2">
     <g id="line2d_15">
      <path clip-path="url(#peceeec5da8)" d="M 36.403365 461.342476 
L 733.65976 461.342476 
" style="fill:none;stroke:#b0b0b0;stroke-linecap:square;stroke-width:0.8;"/>
     </g>
     <g id="line2d_16">
      <g>
       <use style="stroke:#000000;stroke-width:0.8;" x="36.403365" xlink:href="#m8f73a8b5ea" y="461.342476"/>
      </g>
     </g>
     <g id="text_9">
      <!-- 2 -->
      <g transform="translate(23.040865 465.141695)scale(0.1 -0.1)">
       <use xlink:href="#DejaVuSans-50"/>
      </g>
     </g>
    </g>
    <g id="ytick_3">
     <g id="line2d_17">
      <path clip-path="url(#peceeec5da8)" d="M 36.403365 394.736229 
L 733.65976 394.736229 
" style="fill:none;stroke:#b0b0b0;stroke-linecap:square;stroke-width:0.8;"/>
     </g>
     <g id="line2d_18">
      <g>
       <use style="stroke:#000000;stroke-width:0.8;" x="36.403365" xlink:href="#m8f73a8b5ea" y="394.736229"/>
      </g>
     </g>
     <g id="text_10">
      <!-- 4 -->
      <g transform="translate(23.040865 398.535447)scale(0.1 -0.1)">
       <use xlink:href="#DejaVuSans-52"/>
      </g>
     </g>
    </g>
    <g id="ytick_4">
     <g id="line2d_19">
      <path clip-path="url(#peceeec5da8)" d="M 36.403365 328.129981 
L 733.65976 328.129981 
" style="fill:none;stroke:#b0b0b0;stroke-linecap:square;stroke-width:0.8;"/>
     </g>
     <g id="line2d_20">
      <g>
       <use style="stroke:#000000;stroke-width:0.8;" x="36.403365" xlink:href="#m8f73a8b5ea" y="328.129981"/>
      </g>
     </g>
     <g id="text_11">
      <!-- 6 -->
      <defs>
       <path d="M 33.015625 40.375 
Q 26.375 40.375 22.484375 35.828125 
Q 18.609375 31.296875 18.609375 23.390625 
Q 18.609375 15.53125 22.484375 10.953125 
Q 26.375 6.390625 33.015625 6.390625 
Q 39.65625 6.390625 43.53125 10.953125 
Q 47.40625 15.53125 47.40625 23.390625 
Q 47.40625 31.296875 43.53125 35.828125 
Q 39.65625 40.375 33.015625 40.375 
z
M 52.59375 71.296875 
L 52.59375 62.3125 
Q 48.875 64.0625 45.09375 64.984375 
Q 41.3125 65.921875 37.59375 65.921875 
Q 27.828125 65.921875 22.671875 59.328125 
Q 17.53125 52.734375 16.796875 39.40625 
Q 19.671875 43.65625 24.015625 45.921875 
Q 28.375 48.1875 33.59375 48.1875 
Q 44.578125 48.1875 50.953125 41.515625 
Q 57.328125 34.859375 57.328125 23.390625 
Q 57.328125 12.15625 50.6875 5.359375 
Q 44.046875 -1.421875 33.015625 -1.421875 
Q 20.359375 -1.421875 13.671875 8.265625 
Q 6.984375 17.96875 6.984375 36.375 
Q 6.984375 53.65625 15.1875 63.9375 
Q 23.390625 74.21875 37.203125 74.21875 
Q 40.921875 74.21875 44.703125 73.484375 
Q 48.484375 72.75 52.59375 71.296875 
z
" id="DejaVuSans-54"/>
      </defs>
      <g transform="translate(23.040865 331.9292)scale(0.1 -0.1)">
       <use xlink:href="#DejaVuSans-54"/>
      </g>
     </g>
    </g>
    <g id="ytick_5">
     <g id="line2d_21">
      <path clip-path="url(#peceeec5da8)" d="M 36.403365 261.523734 
L 733.65976 261.523734 
" style="fill:none;stroke:#b0b0b0;stroke-linecap:square;stroke-width:0.8;"/>
     </g>
     <g id="line2d_22">
      <g>
       <use style="stroke:#000000;stroke-width:0.8;" x="36.403365" xlink:href="#m8f73a8b5ea" y="261.523734"/>
      </g>
     </g>
     <g id="text_12">
      <!-- 8 -->
      <defs>
       <path d="M 31.78125 34.625 
Q 24.75 34.625 20.71875 30.859375 
Q 16.703125 27.09375 16.703125 20.515625 
Q 16.703125 13.921875 20.71875 10.15625 
Q 24.75 6.390625 31.78125 6.390625 
Q 38.8125 6.390625 42.859375 10.171875 
Q 46.921875 13.96875 46.921875 20.515625 
Q 46.921875 27.09375 42.890625 30.859375 
Q 38.875 34.625 31.78125 34.625 
z
M 21.921875 38.8125 
Q 15.578125 40.375 12.03125 44.71875 
Q 8.5 49.078125 8.5 55.328125 
Q 8.5 64.0625 14.71875 69.140625 
Q 20.953125 74.21875 31.78125 74.21875 
Q 42.671875 74.21875 48.875 69.140625 
Q 55.078125 64.0625 55.078125 55.328125 
Q 55.078125 49.078125 51.53125 44.71875 
Q 48 40.375 41.703125 38.8125 
Q 48.828125 37.15625 52.796875 32.3125 
Q 56.78125 27.484375 56.78125 20.515625 
Q 56.78125 9.90625 50.3125 4.234375 
Q 43.84375 -1.421875 31.78125 -1.421875 
Q 19.734375 -1.421875 13.25 4.234375 
Q 6.78125 9.90625 6.78125 20.515625 
Q 6.78125 27.484375 10.78125 32.3125 
Q 14.796875 37.15625 21.921875 38.8125 
z
M 18.3125 54.390625 
Q 18.3125 48.734375 21.84375 45.5625 
Q 25.390625 42.390625 31.78125 42.390625 
Q 38.140625 42.390625 41.71875 45.5625 
Q 45.3125 48.734375 45.3125 54.390625 
Q 45.3125 60.0625 41.71875 63.234375 
Q 38.140625 66.40625 31.78125 66.40625 
Q 25.390625 66.40625 21.84375 63.234375 
Q 18.3125 60.0625 18.3125 54.390625 
z
" id="DejaVuSans-56"/>
      </defs>
      <g transform="translate(23.040865 265.322953)scale(0.1 -0.1)">
       <use xlink:href="#DejaVuSans-56"/>
      </g>
     </g>
    </g>
    <g id="ytick_6">
     <g id="line2d_23">
      <path clip-path="url(#peceeec5da8)" d="M 36.403365 194.917486 
L 733.65976 194.917486 
" style="fill:none;stroke:#b0b0b0;stroke-linecap:square;stroke-width:0.8;"/>
     </g>
     <g id="line2d_24">
      <g>
       <use style="stroke:#000000;stroke-width:0.8;" x="36.403365" xlink:href="#m8f73a8b5ea" y="194.917486"/>
      </g>
     </g>
     <g id="text_13">
      <!-- 10 -->
      <defs>
       <path d="M 12.40625 8.296875 
L 28.515625 8.296875 
L 28.515625 63.921875 
L 10.984375 60.40625 
L 10.984375 69.390625 
L 28.421875 72.90625 
L 38.28125 72.90625 
L 38.28125 8.296875 
L 54.390625 8.296875 
L 54.390625 0 
L 12.40625 0 
z
" id="DejaVuSans-49"/>
      </defs>
      <g transform="translate(16.678365 198.716705)scale(0.1 -0.1)">
       <use xlink:href="#DejaVuSans-49"/>
       <use x="63.623047" xlink:href="#DejaVuSans-48"/>
      </g>
     </g>
    </g>
    <g id="ytick_7">
     <g id="line2d_25">
      <path clip-path="url(#peceeec5da8)" d="M 36.403365 128.311239 
L 733.65976 128.311239 
" style="fill:none;stroke:#b0b0b0;stroke-linecap:square;stroke-width:0.8;"/>
     </g>
     <g id="line2d_26">
      <g>
       <use style="stroke:#000000;stroke-width:0.8;" x="36.403365" xlink:href="#m8f73a8b5ea" y="128.311239"/>
      </g>
     </g>
     <g id="text_14">
      <!-- 12 -->
      <g transform="translate(16.678365 132.110458)scale(0.1 -0.1)">
       <use xlink:href="#DejaVuSans-49"/>
       <use x="63.623047" xlink:href="#DejaVuSans-50"/>
      </g>
     </g>
    </g>
    <g id="ytick_8">
     <g id="line2d_27">
      <path clip-path="url(#peceeec5da8)" d="M 36.403365 61.704992 
L 733.65976 61.704992 
" style="fill:none;stroke:#b0b0b0;stroke-linecap:square;stroke-width:0.8;"/>
     </g>
     <g id="line2d_28">
      <g>
       <use style="stroke:#000000;stroke-width:0.8;" x="36.403365" xlink:href="#m8f73a8b5ea" y="61.704992"/>
      </g>
     </g>
     <g id="text_15">
      <!-- 14 -->
      <g transform="translate(16.678365 65.50421)scale(0.1 -0.1)">
       <use xlink:href="#DejaVuSans-49"/>
       <use x="63.623047" xlink:href="#DejaVuSans-52"/>
      </g>
     </g>
    </g>
    <g id="text_16">
     <!-- Probability -->
     <defs>
      <path d="M 19.671875 64.796875 
L 19.671875 37.40625 
L 32.078125 37.40625 
Q 38.96875 37.40625 42.71875 40.96875 
Q 46.484375 44.53125 46.484375 51.125 
Q 46.484375 57.671875 42.71875 61.234375 
Q 38.96875 64.796875 32.078125 64.796875 
z
M 9.8125 72.90625 
L 32.078125 72.90625 
Q 44.34375 72.90625 50.609375 67.359375 
Q 56.890625 61.8125 56.890625 51.125 
Q 56.890625 40.328125 50.609375 34.8125 
Q 44.34375 29.296875 32.078125 29.296875 
L 19.671875 29.296875 
L 19.671875 0 
L 9.8125 0 
z
" id="DejaVuSans-80"/>
      <path d="M 41.109375 46.296875 
Q 39.59375 47.171875 37.8125 47.578125 
Q 36.03125 48 33.890625 48 
Q 26.265625 48 22.1875 43.046875 
Q 18.109375 38.09375 18.109375 28.8125 
L 18.109375 0 
L 9.078125 0 
L 9.078125 54.6875 
L 18.109375 54.6875 
L 18.109375 46.1875 
Q 20.953125 51.171875 25.484375 53.578125 
Q 30.03125 56 36.53125 56 
Q 37.453125 56 38.578125 55.875 
Q 39.703125 55.765625 41.0625 55.515625 
z
" id="DejaVuSans-114"/>
      <path d="M 30.609375 48.390625 
Q 23.390625 48.390625 19.1875 42.75 
Q 14.984375 37.109375 14.984375 27.296875 
Q 14.984375 17.484375 19.15625 11.84375 
Q 23.34375 6.203125 30.609375 6.203125 
Q 37.796875 6.203125 41.984375 11.859375 
Q 46.1875 17.53125 46.1875 27.296875 
Q 46.1875 37.015625 41.984375 42.703125 
Q 37.796875 48.390625 30.609375 48.390625 
z
M 30.609375 56 
Q 42.328125 56 49.015625 48.375 
Q 55.71875 40.765625 55.71875 27.296875 
Q 55.71875 13.875 49.015625 6.21875 
Q 42.328125 -1.421875 30.609375 -1.421875 
Q 18.84375 -1.421875 12.171875 6.21875 
Q 5.515625 13.875 5.515625 27.296875 
Q 5.515625 40.765625 12.171875 48.375 
Q 18.84375 56 30.609375 56 
z
" id="DejaVuSans-111"/>
      <path d="M 48.6875 27.296875 
Q 48.6875 37.203125 44.609375 42.84375 
Q 40.53125 48.484375 33.40625 48.484375 
Q 26.265625 48.484375 22.1875 42.84375 
Q 18.109375 37.203125 18.109375 27.296875 
Q 18.109375 17.390625 22.1875 11.75 
Q 26.265625 6.109375 33.40625 6.109375 
Q 40.53125 6.109375 44.609375 11.75 
Q 48.6875 17.390625 48.6875 27.296875 
z
M 18.109375 46.390625 
Q 20.953125 51.265625 25.265625 53.625 
Q 29.59375 56 35.59375 56 
Q 45.5625 56 51.78125 48.09375 
Q 58.015625 40.1875 58.015625 27.296875 
Q 58.015625 14.40625 51.78125 6.484375 
Q 45.5625 -1.421875 35.59375 -1.421875 
Q 29.59375 -1.421875 25.265625 0.953125 
Q 20.953125 3.328125 18.109375 8.203125 
L 18.109375 0 
L 9.078125 0 
L 9.078125 75.984375 
L 18.109375 75.984375 
z
" id="DejaVuSans-98"/>
      <path d="M 34.28125 27.484375 
Q 23.390625 27.484375 19.1875 25 
Q 14.984375 22.515625 14.984375 16.5 
Q 14.984375 11.71875 18.140625 8.90625 
Q 21.296875 6.109375 26.703125 6.109375 
Q 34.1875 6.109375 38.703125 11.40625 
Q 43.21875 16.703125 43.21875 25.484375 
L 43.21875 27.484375 
z
M 52.203125 31.203125 
L 52.203125 0 
L 43.21875 0 
L 43.21875 8.296875 
Q 40.140625 3.328125 35.546875 0.953125 
Q 30.953125 -1.421875 24.3125 -1.421875 
Q 15.921875 -1.421875 10.953125 3.296875 
Q 6 8.015625 6 15.921875 
Q 6 25.140625 12.171875 29.828125 
Q 18.359375 34.515625 30.609375 34.515625 
L 43.21875 34.515625 
L 43.21875 35.40625 
Q 43.21875 41.609375 39.140625 45 
Q 35.0625 48.390625 27.6875 48.390625 
Q 23 48.390625 18.546875 47.265625 
Q 14.109375 46.140625 10.015625 43.890625 
L 10.015625 52.203125 
Q 14.9375 54.109375 19.578125 55.046875 
Q 24.21875 56 28.609375 56 
Q 40.484375 56 46.34375 49.84375 
Q 52.203125 43.703125 52.203125 31.203125 
z
" id="DejaVuSans-97"/>
      <path d="M 9.421875 54.6875 
L 18.40625 54.6875 
L 18.40625 0 
L 9.421875 0 
z
M 9.421875 75.984375 
L 18.40625 75.984375 
L 18.40625 64.59375 
L 9.421875 64.59375 
z
" id="DejaVuSans-105"/>
      <path d="M 9.421875 75.984375 
L 18.40625 75.984375 
L 18.40625 0 
L 9.421875 0 
z
" id="DejaVuSans-108"/>
      <path d="M 18.3125 70.21875 
L 18.3125 54.6875 
L 36.8125 54.6875 
L 36.8125 47.703125 
L 18.3125 47.703125 
L 18.3125 18.015625 
Q 18.3125 11.328125 20.140625 9.421875 
Q 21.96875 7.515625 27.59375 7.515625 
L 36.8125 7.515625 
L 36.8125 0 
L 27.59375 0 
Q 17.1875 0 13.234375 3.875 
Q 9.28125 7.765625 9.28125 18.015625 
L 9.28125 47.703125 
L 2.6875 47.703125 
L 2.6875 54.6875 
L 9.28125 54.6875 
L 9.28125 70.21875 
z
" id="DejaVuSans-116"/>
      <path d="M 32.171875 -5.078125 
Q 28.375 -14.84375 24.75 -17.8125 
Q 21.140625 -20.796875 15.09375 -20.796875 
L 7.90625 -20.796875 
L 7.90625 -13.28125 
L 13.1875 -13.28125 
Q 16.890625 -13.28125 18.9375 -11.515625 
Q 21 -9.765625 23.484375 -3.21875 
L 25.09375 0.875 
L 2.984375 54.6875 
L 12.5 54.6875 
L 29.59375 11.921875 
L 46.6875 54.6875 
L 56.203125 54.6875 
z
" id="DejaVuSans-121"/>
     </defs>
     <g transform="translate(10.598678 293.851044)rotate(-90)scale(0.1 -0.1)">
      <use xlink:href="#DejaVuSans-80"/>
      <use x="60.287109" xlink:href="#DejaVuSans-114"/>
      <use x="101.369141" xlink:href="#DejaVuSans-111"/>
      <use x="162.550781" xlink:href="#DejaVuSans-98"/>
      <use x="226.027344" xlink:href="#DejaVuSans-97"/>
      <use x="287.306641" xlink:href="#DejaVuSans-98"/>
      <use x="350.783203" xlink:href="#DejaVuSans-105"/>
      <use x="378.566406" xlink:href="#DejaVuSans-108"/>
      <use x="406.349609" xlink:href="#DejaVuSans-105"/>
      <use x="434.132812" xlink:href="#DejaVuSans-116"/>
      <use x="473.341797" xlink:href="#DejaVuSans-121"/>
     </g>
    </g>
   </g>
   <g id="line2d_29">
    <path clip-path="url(#peceeec5da8)" d="M 277.21499 527.948723 
L 277.21499 6.50024 
" style="fill:none;stroke:#1f77b4;stroke-linecap:square;stroke-width:1.5;"/>
   </g>
   <g id="line2d_30">
    <path clip-path="url(#peceeec5da8)" d="M 470.467376 527.948723 
L 470.467376 6.50024 
" style="fill:none;stroke:#ff7f0e;stroke-linecap:square;stroke-width:1.5;"/>
   </g>
   <g id="line2d_31">
    <path clip-path="url(#peceeec5da8)" d="M 491.461923 527.948723 
L 491.461923 6.50024 
" style="fill:none;stroke:#2ca02c;stroke-linecap:square;stroke-width:1.5;"/>
   </g>
   <g id="patch_33">
    <path d="M 36.403365 527.948723 
L 36.403365 6.50024 
" style="fill:none;stroke:#000000;stroke-linecap:square;stroke-linejoin:miter;stroke-width:0.8;"/>
   </g>
   <g id="patch_34">
    <path d="M 733.65976 527.948723 
L 733.65976 6.50024 
" style="fill:none;stroke:#000000;stroke-linecap:square;stroke-linejoin:miter;stroke-width:0.8;"/>
   </g>
   <g id="patch_35">
    <path d="M 36.403365 527.948723 
L 733.65976 527.948723 
" style="fill:none;stroke:#000000;stroke-linecap:square;stroke-linejoin:miter;stroke-width:0.8;"/>
   </g>
   <g id="patch_36">
    <path d="M 36.403365 6.50024 
L 733.65976 6.50024 
" style="fill:none;stroke:#000000;stroke-linecap:square;stroke-linejoin:miter;stroke-width:0.8;"/>
   </g>
   <g id="legend_1">
    <g id="patch_37">
     <path d="M 155.677188 606.850117 
L 614.385938 606.850117 
Q 615.985938 606.850117 615.985938 605.250117 
L 615.985938 570.050117 
Q 615.985938 568.450117 614.385938 568.450117 
L 155.677188 568.450117 
Q 154.077188 568.450117 154.077188 570.050117 
L 154.077188 605.250117 
Q 154.077188 606.850117 155.677188 606.850117 
z
" style="fill:#ffffff;opacity:0.8;stroke:#cccccc;stroke-linejoin:miter;"/>
    </g>
    <g id="patch_38">
     <path d="M 157.277188 577.763867 
L 173.277188 577.763867 
L 173.277188 572.163867 
L 157.277188 572.163867 
z
" style="fill:#1f77b4;opacity:0.5;"/>
    </g>
    <g id="text_17">
     <!-- transport, passenger car, electric | transport, passenger car, electric | GLO | ecoinvent 3.5 cutoff -->
     <defs>
      <path d="M 54.890625 33.015625 
L 54.890625 0 
L 45.90625 0 
L 45.90625 32.71875 
Q 45.90625 40.484375 42.875 44.328125 
Q 39.84375 48.1875 33.796875 48.1875 
Q 26.515625 48.1875 22.3125 43.546875 
Q 18.109375 38.921875 18.109375 30.90625 
L 18.109375 0 
L 9.078125 0 
L 9.078125 54.6875 
L 18.109375 54.6875 
L 18.109375 46.1875 
Q 21.34375 51.125 25.703125 53.5625 
Q 30.078125 56 35.796875 56 
Q 45.21875 56 50.046875 50.171875 
Q 54.890625 44.34375 54.890625 33.015625 
z
" id="DejaVuSans-110"/>
      <path d="M 44.28125 53.078125 
L 44.28125 44.578125 
Q 40.484375 46.53125 36.375 47.5 
Q 32.28125 48.484375 27.875 48.484375 
Q 21.1875 48.484375 17.84375 46.4375 
Q 14.5 44.390625 14.5 40.28125 
Q 14.5 37.15625 16.890625 35.375 
Q 19.28125 33.59375 26.515625 31.984375 
L 29.59375 31.296875 
Q 39.15625 29.25 43.1875 25.515625 
Q 47.21875 21.78125 47.21875 15.09375 
Q 47.21875 7.46875 41.1875 3.015625 
Q 35.15625 -1.421875 24.609375 -1.421875 
Q 20.21875 -1.421875 15.453125 -0.5625 
Q 10.6875 0.296875 5.421875 2 
L 5.421875 11.28125 
Q 10.40625 8.6875 15.234375 7.390625 
Q 20.0625 6.109375 24.8125 6.109375 
Q 31.15625 6.109375 34.5625 8.28125 
Q 37.984375 10.453125 37.984375 14.40625 
Q 37.984375 18.0625 35.515625 20.015625 
Q 33.0625 21.96875 24.703125 23.78125 
L 21.578125 24.515625 
Q 13.234375 26.265625 9.515625 29.90625 
Q 5.8125 33.546875 5.8125 39.890625 
Q 5.8125 47.609375 11.28125 51.796875 
Q 16.75 56 26.8125 56 
Q 31.78125 56 36.171875 55.265625 
Q 40.578125 54.546875 44.28125 53.078125 
z
" id="DejaVuSans-115"/>
      <path d="M 18.109375 8.203125 
L 18.109375 -20.796875 
L 9.078125 -20.796875 
L 9.078125 54.6875 
L 18.109375 54.6875 
L 18.109375 46.390625 
Q 20.953125 51.265625 25.265625 53.625 
Q 29.59375 56 35.59375 56 
Q 45.5625 56 51.78125 48.09375 
Q 58.015625 40.1875 58.015625 27.296875 
Q 58.015625 14.40625 51.78125 6.484375 
Q 45.5625 -1.421875 35.59375 -1.421875 
Q 29.59375 -1.421875 25.265625 0.953125 
Q 20.953125 3.328125 18.109375 8.203125 
z
M 48.6875 27.296875 
Q 48.6875 37.203125 44.609375 42.84375 
Q 40.53125 48.484375 33.40625 48.484375 
Q 26.265625 48.484375 22.1875 42.84375 
Q 18.109375 37.203125 18.109375 27.296875 
Q 18.109375 17.390625 22.1875 11.75 
Q 26.265625 6.109375 33.40625 6.109375 
Q 40.53125 6.109375 44.609375 11.75 
Q 48.6875 17.390625 48.6875 27.296875 
z
" id="DejaVuSans-112"/>
      <path d="M 11.71875 12.40625 
L 22.015625 12.40625 
L 22.015625 4 
L 14.015625 -11.625 
L 7.71875 -11.625 
L 11.71875 4 
z
" id="DejaVuSans-44"/>
      <path d="M 56.203125 29.59375 
L 56.203125 25.203125 
L 14.890625 25.203125 
Q 15.484375 15.921875 20.484375 11.0625 
Q 25.484375 6.203125 34.421875 6.203125 
Q 39.59375 6.203125 44.453125 7.46875 
Q 49.3125 8.734375 54.109375 11.28125 
L 54.109375 2.78125 
Q 49.265625 0.734375 44.1875 -0.34375 
Q 39.109375 -1.421875 33.890625 -1.421875 
Q 20.796875 -1.421875 13.15625 6.1875 
Q 5.515625 13.8125 5.515625 26.8125 
Q 5.515625 40.234375 12.765625 48.109375 
Q 20.015625 56 32.328125 56 
Q 43.359375 56 49.78125 48.890625 
Q 56.203125 41.796875 56.203125 29.59375 
z
M 47.21875 32.234375 
Q 47.125 39.59375 43.09375 43.984375 
Q 39.0625 48.390625 32.421875 48.390625 
Q 24.90625 48.390625 20.390625 44.140625 
Q 15.875 39.890625 15.1875 32.171875 
z
" id="DejaVuSans-101"/>
      <path d="M 48.78125 52.59375 
L 48.78125 44.1875 
Q 44.96875 46.296875 41.140625 47.34375 
Q 37.3125 48.390625 33.40625 48.390625 
Q 24.65625 48.390625 19.8125 42.84375 
Q 14.984375 37.3125 14.984375 27.296875 
Q 14.984375 17.28125 19.8125 11.734375 
Q 24.65625 6.203125 33.40625 6.203125 
Q 37.3125 6.203125 41.140625 7.25 
Q 44.96875 8.296875 48.78125 10.40625 
L 48.78125 2.09375 
Q 45.015625 0.34375 40.984375 -0.53125 
Q 36.96875 -1.421875 32.421875 -1.421875 
Q 20.0625 -1.421875 12.78125 6.34375 
Q 5.515625 14.109375 5.515625 27.296875 
Q 5.515625 40.671875 12.859375 48.328125 
Q 20.21875 56 33.015625 56 
Q 37.15625 56 41.109375 55.140625 
Q 45.0625 54.296875 48.78125 52.59375 
z
" id="DejaVuSans-99"/>
      <path d="M 21 76.421875 
L 21 -23.578125 
L 12.703125 -23.578125 
L 12.703125 76.421875 
z
" id="DejaVuSans-124"/>
      <path d="M 59.515625 10.40625 
L 59.515625 29.984375 
L 43.40625 29.984375 
L 43.40625 38.09375 
L 69.28125 38.09375 
L 69.28125 6.78125 
Q 63.578125 2.734375 56.6875 0.65625 
Q 49.8125 -1.421875 42 -1.421875 
Q 24.90625 -1.421875 15.25 8.5625 
Q 5.609375 18.5625 5.609375 36.375 
Q 5.609375 54.25 15.25 64.234375 
Q 24.90625 74.21875 42 74.21875 
Q 49.125 74.21875 55.546875 72.453125 
Q 61.96875 70.703125 67.390625 67.28125 
L 67.390625 56.78125 
Q 61.921875 61.421875 55.765625 63.765625 
Q 49.609375 66.109375 42.828125 66.109375 
Q 29.4375 66.109375 22.71875 58.640625 
Q 16.015625 51.171875 16.015625 36.375 
Q 16.015625 21.625 22.71875 14.15625 
Q 29.4375 6.6875 42.828125 6.6875 
Q 48.046875 6.6875 52.140625 7.59375 
Q 56.25 8.5 59.515625 10.40625 
z
" id="DejaVuSans-71"/>
      <path d="M 9.8125 72.90625 
L 19.671875 72.90625 
L 19.671875 8.296875 
L 55.171875 8.296875 
L 55.171875 0 
L 9.8125 0 
z
" id="DejaVuSans-76"/>
      <path d="M 2.984375 54.6875 
L 12.5 54.6875 
L 29.59375 8.796875 
L 46.6875 54.6875 
L 56.203125 54.6875 
L 35.6875 0 
L 23.484375 0 
z
" id="DejaVuSans-118"/>
      <path d="M 8.5 21.578125 
L 8.5 54.6875 
L 17.484375 54.6875 
L 17.484375 21.921875 
Q 17.484375 14.15625 20.5 10.265625 
Q 23.53125 6.390625 29.59375 6.390625 
Q 36.859375 6.390625 41.078125 11.03125 
Q 45.3125 15.671875 45.3125 23.6875 
L 45.3125 54.6875 
L 54.296875 54.6875 
L 54.296875 0 
L 45.3125 0 
L 45.3125 8.40625 
Q 42.046875 3.421875 37.71875 1 
Q 33.40625 -1.421875 27.6875 -1.421875 
Q 18.265625 -1.421875 13.375 4.4375 
Q 8.5 10.296875 8.5 21.578125 
z
M 31.109375 56 
z
" id="DejaVuSans-117"/>
      <path d="M 37.109375 75.984375 
L 37.109375 68.5 
L 28.515625 68.5 
Q 23.6875 68.5 21.796875 66.546875 
Q 19.921875 64.59375 19.921875 59.515625 
L 19.921875 54.6875 
L 34.71875 54.6875 
L 34.71875 47.703125 
L 19.921875 47.703125 
L 19.921875 0 
L 10.890625 0 
L 10.890625 47.703125 
L 2.296875 47.703125 
L 2.296875 54.6875 
L 10.890625 54.6875 
L 10.890625 58.5 
Q 10.890625 67.625 15.140625 71.796875 
Q 19.390625 75.984375 28.609375 75.984375 
z
" id="DejaVuSans-102"/>
     </defs>
     <g transform="translate(179.677188 577.763867)scale(0.08 -0.08)">
      <use xlink:href="#DejaVuSans-116"/>
      <use x="39.208984" xlink:href="#DejaVuSans-114"/>
      <use x="80.322266" xlink:href="#DejaVuSans-97"/>
      <use x="141.601562" xlink:href="#DejaVuSans-110"/>
      <use x="204.980469" xlink:href="#DejaVuSans-115"/>
      <use x="257.080078" xlink:href="#DejaVuSans-112"/>
      <use x="320.556641" xlink:href="#DejaVuSans-111"/>
      <use x="381.738281" xlink:href="#DejaVuSans-114"/>
      <use x="422.851562" xlink:href="#DejaVuSans-116"/>
      <use x="462.060547" xlink:href="#DejaVuSans-44"/>
      <use x="493.847656" xlink:href="#DejaVuSans-32"/>
      <use x="525.634766" xlink:href="#DejaVuSans-112"/>
      <use x="589.111328" xlink:href="#DejaVuSans-97"/>
      <use x="650.390625" xlink:href="#DejaVuSans-115"/>
      <use x="702.490234" xlink:href="#DejaVuSans-115"/>
      <use x="754.589844" xlink:href="#DejaVuSans-101"/>
      <use x="816.113281" xlink:href="#DejaVuSans-110"/>
      <use x="879.492188" xlink:href="#DejaVuSans-103"/>
      <use x="942.96875" xlink:href="#DejaVuSans-101"/>
      <use x="1004.492188" xlink:href="#DejaVuSans-114"/>
      <use x="1045.605469" xlink:href="#DejaVuSans-32"/>
      <use x="1077.392578" xlink:href="#DejaVuSans-99"/>
      <use x="1132.373047" xlink:href="#DejaVuSans-97"/>
      <use x="1193.652344" xlink:href="#DejaVuSans-114"/>
      <use x="1234.765625" xlink:href="#DejaVuSans-44"/>
      <use x="1266.552734" xlink:href="#DejaVuSans-32"/>
      <use x="1298.339844" xlink:href="#DejaVuSans-101"/>
      <use x="1359.863281" xlink:href="#DejaVuSans-108"/>
      <use x="1387.646484" xlink:href="#DejaVuSans-101"/>
      <use x="1449.169922" xlink:href="#DejaVuSans-99"/>
      <use x="1504.150391" xlink:href="#DejaVuSans-116"/>
      <use x="1543.359375" xlink:href="#DejaVuSans-114"/>
      <use x="1584.472656" xlink:href="#DejaVuSans-105"/>
      <use x="1612.255859" xlink:href="#DejaVuSans-99"/>
      <use x="1667.236328" xlink:href="#DejaVuSans-32"/>
      <use x="1699.023438" xlink:href="#DejaVuSans-124"/>
      <use x="1732.714844" xlink:href="#DejaVuSans-32"/>
      <use x="1764.501953" xlink:href="#DejaVuSans-116"/>
      <use x="1803.710938" xlink:href="#DejaVuSans-114"/>
      <use x="1844.824219" xlink:href="#DejaVuSans-97"/>
      <use x="1906.103516" xlink:href="#DejaVuSans-110"/>
      <use x="1969.482422" xlink:href="#DejaVuSans-115"/>
      <use x="2021.582031" xlink:href="#DejaVuSans-112"/>
      <use x="2085.058594" xlink:href="#DejaVuSans-111"/>
      <use x="2146.240234" xlink:href="#DejaVuSans-114"/>
      <use x="2187.353516" xlink:href="#DejaVuSans-116"/>
      <use x="2226.5625" xlink:href="#DejaVuSans-44"/>
      <use x="2258.349609" xlink:href="#DejaVuSans-32"/>
      <use x="2290.136719" xlink:href="#DejaVuSans-112"/>
      <use x="2353.613281" xlink:href="#DejaVuSans-97"/>
      <use x="2414.892578" xlink:href="#DejaVuSans-115"/>
      <use x="2466.992188" xlink:href="#DejaVuSans-115"/>
      <use x="2519.091797" xlink:href="#DejaVuSans-101"/>
      <use x="2580.615234" xlink:href="#DejaVuSans-110"/>
      <use x="2643.994141" xlink:href="#DejaVuSans-103"/>
      <use x="2707.470703" xlink:href="#DejaVuSans-101"/>
      <use x="2768.994141" xlink:href="#DejaVuSans-114"/>
      <use x="2810.107422" xlink:href="#DejaVuSans-32"/>
      <use x="2841.894531" xlink:href="#DejaVuSans-99"/>
      <use x="2896.875" xlink:href="#DejaVuSans-97"/>
      <use x="2958.154297" xlink:href="#DejaVuSans-114"/>
      <use x="2999.267578" xlink:href="#DejaVuSans-44"/>
      <use x="3031.054688" xlink:href="#DejaVuSans-32"/>
      <use x="3062.841797" xlink:href="#DejaVuSans-101"/>
      <use x="3124.365234" xlink:href="#DejaVuSans-108"/>
      <use x="3152.148438" xlink:href="#DejaVuSans-101"/>
      <use x="3213.671875" xlink:href="#DejaVuSans-99"/>
      <use x="3268.652344" xlink:href="#DejaVuSans-116"/>
      <use x="3307.861328" xlink:href="#DejaVuSans-114"/>
      <use x="3348.974609" xlink:href="#DejaVuSans-105"/>
      <use x="3376.757812" xlink:href="#DejaVuSans-99"/>
      <use x="3431.738281" xlink:href="#DejaVuSans-32"/>
      <use x="3463.525391" xlink:href="#DejaVuSans-124"/>
      <use x="3497.216797" xlink:href="#DejaVuSans-32"/>
      <use x="3529.003906" xlink:href="#DejaVuSans-71"/>
      <use x="3606.494141" xlink:href="#DejaVuSans-76"/>
      <use x="3662.160156" xlink:href="#DejaVuSans-79"/>
      <use x="3740.871094" xlink:href="#DejaVuSans-32"/>
      <use x="3772.658203" xlink:href="#DejaVuSans-124"/>
      <use x="3806.349609" xlink:href="#DejaVuSans-32"/>
      <use x="3838.136719" xlink:href="#DejaVuSans-101"/>
      <use x="3899.660156" xlink:href="#DejaVuSans-99"/>
      <use x="3954.640625" xlink:href="#DejaVuSans-111"/>
      <use x="4015.822266" xlink:href="#DejaVuSans-105"/>
      <use x="4043.605469" xlink:href="#DejaVuSans-110"/>
      <use x="4106.984375" xlink:href="#DejaVuSans-118"/>
      <use x="4166.164062" xlink:href="#DejaVuSans-101"/>
      <use x="4227.6875" xlink:href="#DejaVuSans-110"/>
      <use x="4291.066406" xlink:href="#DejaVuSans-116"/>
      <use x="4330.275391" xlink:href="#DejaVuSans-32"/>
      <use x="4362.0625" xlink:href="#DejaVuSans-51"/>
      <use x="4425.685547" xlink:href="#DejaVuSans-46"/>
      <use x="4457.472656" xlink:href="#DejaVuSans-53"/>
      <use x="4521.095703" xlink:href="#DejaVuSans-32"/>
      <use x="4552.882812" xlink:href="#DejaVuSans-99"/>
      <use x="4607.863281" xlink:href="#DejaVuSans-117"/>
      <use x="4671.242188" xlink:href="#DejaVuSans-116"/>
      <use x="4710.451172" xlink:href="#DejaVuSans-111"/>
      <use x="4771.632812" xlink:href="#DejaVuSans-102"/>
      <use x="4806.837891" xlink:href="#DejaVuSans-102"/>
     </g>
    </g>
    <g id="patch_39">
     <path d="M 157.277188 589.763867 
L 173.277188 589.763867 
L 173.277188 584.163867 
L 157.277188 584.163867 
z
" style="fill:#ff7f0e;opacity:0.5;"/>
    </g>
    <g id="text_18">
     <!-- market for transport, passenger car, EURO 5 | transport, passenger car, EURO 5 | RER | ecoinvent 3.5 cutoff -->
     <defs>
      <path d="M 52 44.1875 
Q 55.375 50.25 60.0625 53.125 
Q 64.75 56 71.09375 56 
Q 79.640625 56 84.28125 50.015625 
Q 88.921875 44.046875 88.921875 33.015625 
L 88.921875 0 
L 79.890625 0 
L 79.890625 32.71875 
Q 79.890625 40.578125 77.09375 44.375 
Q 74.3125 48.1875 68.609375 48.1875 
Q 61.625 48.1875 57.5625 43.546875 
Q 53.515625 38.921875 53.515625 30.90625 
L 53.515625 0 
L 44.484375 0 
L 44.484375 32.71875 
Q 44.484375 40.625 41.703125 44.40625 
Q 38.921875 48.1875 33.109375 48.1875 
Q 26.21875 48.1875 22.15625 43.53125 
Q 18.109375 38.875 18.109375 30.90625 
L 18.109375 0 
L 9.078125 0 
L 9.078125 54.6875 
L 18.109375 54.6875 
L 18.109375 46.1875 
Q 21.1875 51.21875 25.484375 53.609375 
Q 29.78125 56 35.6875 56 
Q 41.65625 56 45.828125 52.96875 
Q 50 49.953125 52 44.1875 
z
" id="DejaVuSans-109"/>
      <path d="M 8.6875 72.90625 
L 18.609375 72.90625 
L 18.609375 28.609375 
Q 18.609375 16.890625 22.84375 11.734375 
Q 27.09375 6.59375 36.625 6.59375 
Q 46.09375 6.59375 50.34375 11.734375 
Q 54.59375 16.890625 54.59375 28.609375 
L 54.59375 72.90625 
L 64.5 72.90625 
L 64.5 27.390625 
Q 64.5 13.140625 57.4375 5.859375 
Q 50.390625 -1.421875 36.625 -1.421875 
Q 22.796875 -1.421875 15.734375 5.859375 
Q 8.6875 13.140625 8.6875 27.390625 
z
" id="DejaVuSans-85"/>
      <path d="M 44.390625 34.1875 
Q 47.5625 33.109375 50.5625 29.59375 
Q 53.5625 26.078125 56.59375 19.921875 
L 66.609375 0 
L 56 0 
L 46.6875 18.703125 
Q 43.0625 26.03125 39.671875 28.421875 
Q 36.28125 30.8125 30.421875 30.8125 
L 19.671875 30.8125 
L 19.671875 0 
L 9.8125 0 
L 9.8125 72.90625 
L 32.078125 72.90625 
Q 44.578125 72.90625 50.734375 67.671875 
Q 56.890625 62.453125 56.890625 51.90625 
Q 56.890625 45.015625 53.6875 40.46875 
Q 50.484375 35.9375 44.390625 34.1875 
z
M 19.671875 64.796875 
L 19.671875 38.921875 
L 32.078125 38.921875 
Q 39.203125 38.921875 42.84375 42.21875 
Q 46.484375 45.515625 46.484375 51.90625 
Q 46.484375 58.296875 42.84375 61.546875 
Q 39.203125 64.796875 32.078125 64.796875 
z
" id="DejaVuSans-82"/>
     </defs>
     <g transform="translate(179.677188 589.763867)scale(0.08 -0.08)">
      <use xlink:href="#DejaVuSans-109"/>
      <use x="97.412109" xlink:href="#DejaVuSans-97"/>
      <use x="158.691406" xlink:href="#DejaVuSans-114"/>
      <use x="199.804688" xlink:href="#DejaVuSans-107"/>
      <use x="257.667969" xlink:href="#DejaVuSans-101"/>
      <use x="319.191406" xlink:href="#DejaVuSans-116"/>
      <use x="358.400391" xlink:href="#DejaVuSans-32"/>
      <use x="390.1875" xlink:href="#DejaVuSans-102"/>
      <use x="425.392578" xlink:href="#DejaVuSans-111"/>
      <use x="486.574219" xlink:href="#DejaVuSans-114"/>
      <use x="527.6875" xlink:href="#DejaVuSans-32"/>
      <use x="559.474609" xlink:href="#DejaVuSans-116"/>
      <use x="598.683594" xlink:href="#DejaVuSans-114"/>
      <use x="639.796875" xlink:href="#DejaVuSans-97"/>
      <use x="701.076172" xlink:href="#DejaVuSans-110"/>
      <use x="764.455078" xlink:href="#DejaVuSans-115"/>
      <use x="816.554688" xlink:href="#DejaVuSans-112"/>
      <use x="880.03125" xlink:href="#DejaVuSans-111"/>
      <use x="941.212891" xlink:href="#DejaVuSans-114"/>
      <use x="982.326172" xlink:href="#DejaVuSans-116"/>
      <use x="1021.535156" xlink:href="#DejaVuSans-44"/>
      <use x="1053.322266" xlink:href="#DejaVuSans-32"/>
      <use x="1085.109375" xlink:href="#DejaVuSans-112"/>
      <use x="1148.585938" xlink:href="#DejaVuSans-97"/>
      <use x="1209.865234" xlink:href="#DejaVuSans-115"/>
      <use x="1261.964844" xlink:href="#DejaVuSans-115"/>
      <use x="1314.064453" xlink:href="#DejaVuSans-101"/>
      <use x="1375.587891" xlink:href="#DejaVuSans-110"/>
      <use x="1438.966797" xlink:href="#DejaVuSans-103"/>
      <use x="1502.443359" xlink:href="#DejaVuSans-101"/>
      <use x="1563.966797" xlink:href="#DejaVuSans-114"/>
      <use x="1605.080078" xlink:href="#DejaVuSans-32"/>
      <use x="1636.867188" xlink:href="#DejaVuSans-99"/>
      <use x="1691.847656" xlink:href="#DejaVuSans-97"/>
      <use x="1753.126953" xlink:href="#DejaVuSans-114"/>
      <use x="1794.240234" xlink:href="#DejaVuSans-44"/>
      <use x="1826.027344" xlink:href="#DejaVuSans-32"/>
      <use x="1857.814453" xlink:href="#DejaVuSans-69"/>
      <use x="1920.998047" xlink:href="#DejaVuSans-85"/>
      <use x="1994.191406" xlink:href="#DejaVuSans-82"/>
      <use x="2063.673828" xlink:href="#DejaVuSans-79"/>
      <use x="2142.384766" xlink:href="#DejaVuSans-32"/>
      <use x="2174.171875" xlink:href="#DejaVuSans-53"/>
      <use x="2237.794922" xlink:href="#DejaVuSans-32"/>
      <use x="2269.582031" xlink:href="#DejaVuSans-124"/>
      <use x="2303.273438" xlink:href="#DejaVuSans-32"/>
      <use x="2335.060547" xlink:href="#DejaVuSans-116"/>
      <use x="2374.269531" xlink:href="#DejaVuSans-114"/>
      <use x="2415.382812" xlink:href="#DejaVuSans-97"/>
      <use x="2476.662109" xlink:href="#DejaVuSans-110"/>
      <use x="2540.041016" xlink:href="#DejaVuSans-115"/>
      <use x="2592.140625" xlink:href="#DejaVuSans-112"/>
      <use x="2655.617188" xlink:href="#DejaVuSans-111"/>
      <use x="2716.798828" xlink:href="#DejaVuSans-114"/>
      <use x="2757.912109" xlink:href="#DejaVuSans-116"/>
      <use x="2797.121094" xlink:href="#DejaVuSans-44"/>
      <use x="2828.908203" xlink:href="#DejaVuSans-32"/>
      <use x="2860.695312" xlink:href="#DejaVuSans-112"/>
      <use x="2924.171875" xlink:href="#DejaVuSans-97"/>
      <use x="2985.451172" xlink:href="#DejaVuSans-115"/>
      <use x="3037.550781" xlink:href="#DejaVuSans-115"/>
      <use x="3089.650391" xlink:href="#DejaVuSans-101"/>
      <use x="3151.173828" xlink:href="#DejaVuSans-110"/>
      <use x="3214.552734" xlink:href="#DejaVuSans-103"/>
      <use x="3278.029297" xlink:href="#DejaVuSans-101"/>
      <use x="3339.552734" xlink:href="#DejaVuSans-114"/>
      <use x="3380.666016" xlink:href="#DejaVuSans-32"/>
      <use x="3412.453125" xlink:href="#DejaVuSans-99"/>
      <use x="3467.433594" xlink:href="#DejaVuSans-97"/>
      <use x="3528.712891" xlink:href="#DejaVuSans-114"/>
      <use x="3569.826172" xlink:href="#DejaVuSans-44"/>
      <use x="3601.613281" xlink:href="#DejaVuSans-32"/>
      <use x="3633.400391" xlink:href="#DejaVuSans-69"/>
      <use x="3696.583984" xlink:href="#DejaVuSans-85"/>
      <use x="3769.777344" xlink:href="#DejaVuSans-82"/>
      <use x="3839.259766" xlink:href="#DejaVuSans-79"/>
      <use x="3917.970703" xlink:href="#DejaVuSans-32"/>
      <use x="3949.757812" xlink:href="#DejaVuSans-53"/>
      <use x="4013.380859" xlink:href="#DejaVuSans-32"/>
      <use x="4045.167969" xlink:href="#DejaVuSans-124"/>
      <use x="4078.859375" xlink:href="#DejaVuSans-32"/>
      <use x="4110.646484" xlink:href="#DejaVuSans-82"/>
      <use x="4180.128906" xlink:href="#DejaVuSans-69"/>
      <use x="4243.3125" xlink:href="#DejaVuSans-82"/>
      <use x="4312.794922" xlink:href="#DejaVuSans-32"/>
      <use x="4344.582031" xlink:href="#DejaVuSans-124"/>
      <use x="4378.273438" xlink:href="#DejaVuSans-32"/>
      <use x="4410.060547" xlink:href="#DejaVuSans-101"/>
      <use x="4471.583984" xlink:href="#DejaVuSans-99"/>
      <use x="4526.564453" xlink:href="#DejaVuSans-111"/>
      <use x="4587.746094" xlink:href="#DejaVuSans-105"/>
      <use x="4615.529297" xlink:href="#DejaVuSans-110"/>
      <use x="4678.908203" xlink:href="#DejaVuSans-118"/>
      <use x="4738.087891" xlink:href="#DejaVuSans-101"/>
      <use x="4799.611328" xlink:href="#DejaVuSans-110"/>
      <use x="4862.990234" xlink:href="#DejaVuSans-116"/>
      <use x="4902.199219" xlink:href="#DejaVuSans-32"/>
      <use x="4933.986328" xlink:href="#DejaVuSans-51"/>
      <use x="4997.609375" xlink:href="#DejaVuSans-46"/>
      <use x="5029.396484" xlink:href="#DejaVuSans-53"/>
      <use x="5093.019531" xlink:href="#DejaVuSans-32"/>
      <use x="5124.806641" xlink:href="#DejaVuSans-99"/>
      <use x="5179.787109" xlink:href="#DejaVuSans-117"/>
      <use x="5243.166016" xlink:href="#DejaVuSans-116"/>
      <use x="5282.375" xlink:href="#DejaVuSans-111"/>
      <use x="5343.556641" xlink:href="#DejaVuSans-102"/>
      <use x="5378.761719" xlink:href="#DejaVuSans-102"/>
     </g>
    </g>
    <g id="patch_40">
     <path d="M 157.277188 601.763867 
L 173.277188 601.763867 
L 173.277188 596.163867 
L 157.277188 596.163867 
z
" style="fill:#2ca02c;opacity:0.5;"/>
    </g>
    <g id="text_19">
     <!-- market for transport, passenger car, EURO 4 | transport, passenger car, EURO 4 | RER | ecoinvent 3.5 cutoff -->
     <g transform="translate(179.677188 601.763867)scale(0.08 -0.08)">
      <use xlink:href="#DejaVuSans-109"/>
      <use x="97.412109" xlink:href="#DejaVuSans-97"/>
      <use x="158.691406" xlink:href="#DejaVuSans-114"/>
      <use x="199.804688" xlink:href="#DejaVuSans-107"/>
      <use x="257.667969" xlink:href="#DejaVuSans-101"/>
      <use x="319.191406" xlink:href="#DejaVuSans-116"/>
      <use x="358.400391" xlink:href="#DejaVuSans-32"/>
      <use x="390.1875" xlink:href="#DejaVuSans-102"/>
      <use x="425.392578" xlink:href="#DejaVuSans-111"/>
      <use x="486.574219" xlink:href="#DejaVuSans-114"/>
      <use x="527.6875" xlink:href="#DejaVuSans-32"/>
      <use x="559.474609" xlink:href="#DejaVuSans-116"/>
      <use x="598.683594" xlink:href="#DejaVuSans-114"/>
      <use x="639.796875" xlink:href="#DejaVuSans-97"/>
      <use x="701.076172" xlink:href="#DejaVuSans-110"/>
      <use x="764.455078" xlink:href="#DejaVuSans-115"/>
      <use x="816.554688" xlink:href="#DejaVuSans-112"/>
      <use x="880.03125" xlink:href="#DejaVuSans-111"/>
      <use x="941.212891" xlink:href="#DejaVuSans-114"/>
      <use x="982.326172" xlink:href="#DejaVuSans-116"/>
      <use x="1021.535156" xlink:href="#DejaVuSans-44"/>
      <use x="1053.322266" xlink:href="#DejaVuSans-32"/>
      <use x="1085.109375" xlink:href="#DejaVuSans-112"/>
      <use x="1148.585938" xlink:href="#DejaVuSans-97"/>
      <use x="1209.865234" xlink:href="#DejaVuSans-115"/>
      <use x="1261.964844" xlink:href="#DejaVuSans-115"/>
      <use x="1314.064453" xlink:href="#DejaVuSans-101"/>
      <use x="1375.587891" xlink:href="#DejaVuSans-110"/>
      <use x="1438.966797" xlink:href="#DejaVuSans-103"/>
      <use x="1502.443359" xlink:href="#DejaVuSans-101"/>
      <use x="1563.966797" xlink:href="#DejaVuSans-114"/>
      <use x="1605.080078" xlink:href="#DejaVuSans-32"/>
      <use x="1636.867188" xlink:href="#DejaVuSans-99"/>
      <use x="1691.847656" xlink:href="#DejaVuSans-97"/>
      <use x="1753.126953" xlink:href="#DejaVuSans-114"/>
      <use x="1794.240234" xlink:href="#DejaVuSans-44"/>
      <use x="1826.027344" xlink:href="#DejaVuSans-32"/>
      <use x="1857.814453" xlink:href="#DejaVuSans-69"/>
      <use x="1920.998047" xlink:href="#DejaVuSans-85"/>
      <use x="1994.191406" xlink:href="#DejaVuSans-82"/>
      <use x="2063.673828" xlink:href="#DejaVuSans-79"/>
      <use x="2142.384766" xlink:href="#DejaVuSans-32"/>
      <use x="2174.171875" xlink:href="#DejaVuSans-52"/>
      <use x="2237.794922" xlink:href="#DejaVuSans-32"/>
      <use x="2269.582031" xlink:href="#DejaVuSans-124"/>
      <use x="2303.273438" xlink:href="#DejaVuSans-32"/>
      <use x="2335.060547" xlink:href="#DejaVuSans-116"/>
      <use x="2374.269531" xlink:href="#DejaVuSans-114"/>
      <use x="2415.382812" xlink:href="#DejaVuSans-97"/>
      <use x="2476.662109" xlink:href="#DejaVuSans-110"/>
      <use x="2540.041016" xlink:href="#DejaVuSans-115"/>
      <use x="2592.140625" xlink:href="#DejaVuSans-112"/>
      <use x="2655.617188" xlink:href="#DejaVuSans-111"/>
      <use x="2716.798828" xlink:href="#DejaVuSans-114"/>
      <use x="2757.912109" xlink:href="#DejaVuSans-116"/>
      <use x="2797.121094" xlink:href="#DejaVuSans-44"/>
      <use x="2828.908203" xlink:href="#DejaVuSans-32"/>
      <use x="2860.695312" xlink:href="#DejaVuSans-112"/>
      <use x="2924.171875" xlink:href="#DejaVuSans-97"/>
      <use x="2985.451172" xlink:href="#DejaVuSans-115"/>
      <use x="3037.550781" xlink:href="#DejaVuSans-115"/>
      <use x="3089.650391" xlink:href="#DejaVuSans-101"/>
      <use x="3151.173828" xlink:href="#DejaVuSans-110"/>
      <use x="3214.552734" xlink:href="#DejaVuSans-103"/>
      <use x="3278.029297" xlink:href="#DejaVuSans-101"/>
      <use x="3339.552734" xlink:href="#DejaVuSans-114"/>
      <use x="3380.666016" xlink:href="#DejaVuSans-32"/>
      <use x="3412.453125" xlink:href="#DejaVuSans-99"/>
      <use x="3467.433594" xlink:href="#DejaVuSans-97"/>
      <use x="3528.712891" xlink:href="#DejaVuSans-114"/>
      <use x="3569.826172" xlink:href="#DejaVuSans-44"/>
      <use x="3601.613281" xlink:href="#DejaVuSans-32"/>
      <use x="3633.400391" xlink:href="#DejaVuSans-69"/>
      <use x="3696.583984" xlink:href="#DejaVuSans-85"/>
      <use x="3769.777344" xlink:href="#DejaVuSans-82"/>
      <use x="3839.259766" xlink:href="#DejaVuSans-79"/>
      <use x="3917.970703" xlink:href="#DejaVuSans-32"/>
      <use x="3949.757812" xlink:href="#DejaVuSans-52"/>
      <use x="4013.380859" xlink:href="#DejaVuSans-32"/>
      <use x="4045.167969" xlink:href="#DejaVuSans-124"/>
      <use x="4078.859375" xlink:href="#DejaVuSans-32"/>
      <use x="4110.646484" xlink:href="#DejaVuSans-82"/>
      <use x="4180.128906" xlink:href="#DejaVuSans-69"/>
      <use x="4243.3125" xlink:href="#DejaVuSans-82"/>
      <use x="4312.794922" xlink:href="#DejaVuSans-32"/>
      <use x="4344.582031" xlink:href="#DejaVuSans-124"/>
      <use x="4378.273438" xlink:href="#DejaVuSans-32"/>
      <use x="4410.060547" xlink:href="#DejaVuSans-101"/>
      <use x="4471.583984" xlink:href="#DejaVuSans-99"/>
      <use x="4526.564453" xlink:href="#DejaVuSans-111"/>
      <use x="4587.746094" xlink:href="#DejaVuSans-105"/>
      <use x="4615.529297" xlink:href="#DejaVuSans-110"/>
      <use x="4678.908203" xlink:href="#DejaVuSans-118"/>
      <use x="4738.087891" xlink:href="#DejaVuSans-101"/>
      <use x="4799.611328" xlink:href="#DejaVuSans-110"/>
      <use x="4862.990234" xlink:href="#DejaVuSans-116"/>
      <use x="4902.199219" xlink:href="#DejaVuSans-32"/>
      <use x="4933.986328" xlink:href="#DejaVuSans-51"/>
      <use x="4997.609375" xlink:href="#DejaVuSans-46"/>
      <use x="5029.396484" xlink:href="#DejaVuSans-53"/>
      <use x="5093.019531" xlink:href="#DejaVuSans-32"/>
      <use x="5124.806641" xlink:href="#DejaVuSans-99"/>
      <use x="5179.787109" xlink:href="#DejaVuSans-117"/>
      <use x="5243.166016" xlink:href="#DejaVuSans-116"/>
      <use x="5282.375" xlink:href="#DejaVuSans-111"/>
      <use x="5343.556641" xlink:href="#DejaVuSans-102"/>
      <use x="5378.761719" xlink:href="#DejaVuSans-102"/>
     </g>
    </g>
   </g>
  </g>
 </g>
 <defs>
  <clipPath id="peceeec5da8">
   <rect height="521.448483" width="697.256395" x="36.403365" y="6.50024"/>
  </clipPath>
 </defs>
</svg>
